<svg xml:space="preserve" x="0" y="0" style="enable-background:new 0 0 512 512" version="1.1" viewBox="0 0 512 512" class="{{class-placeholder}}"><g id="layer2"><path id="rect4599" d="M258.2 225.4c5-10.3 17.4-14.6 27.7-9.6" class="st0"/><path d="M476.3 129c-77.3 4.1-123.1 6.2-162.4 6.5v87.4l-12.3-6.1-.1-81.3c-45.1 0-84.8-2.4-160.1-6.5-9.4-.1-22.6-1.9-36.7-1.9-36.1-.1-84.4 25.7-81.7 90.3 4.2 101 96.2 110.4 133 111.2 4 18.9 47.3 84.3 79.4 87.7h140.4C460 410.1 523 130 476.3 129zM58.1 218.9c-3.6-28 9-57.3 56.1-56.1 5.1 51.8 13.4 82 30.3 128.3-43.1-5.7-79.7-19.7-86.4-72.2zm318.3 63.9-39.3 80.9c-5 10.3-17.4 14.6-27.7 9.6L228.5 334c-10.3-5-14.6-17.4-9.6-27.7l39.3-80.9 27.7-9.6 80.9 39.3c10.3 5 14.6 17.4 9.6 27.7z"/><path id="path4525" d="m301.5 135.5.1 81.3" class="st0"/></g><g id="layer3"><g id="g4539"><circle id="path4606" cx="289.8" cy="257.5" r="13.1"/><circle id="path4606-3" cx="261.6" cy="316" r="13.1"/><circle id="path4606-1" cx="308" cy="336.8" r="13.1"/><path id="rect4629-8" d="M231 266.2H334V276.3H231z" transform="rotate(-63.973 282.578 271.257)"/><path id="path4514" d="M289.4 257.4c49 24.2 49.2 15.5 18.5 79" style="fill:none;stroke:#000;stroke-width:2.68"/></g></g></svg>