<svg version="1.0" xmlns="http://www.w3.org/2000/svg" width="1365.333" height="1365.333" viewBox="0 0 1024 1024"><path d="M487.5.6C426.1 4.2 370.6 16.4 319 37.7 250.4 66 194.1 104.5 140.9 159.6 108.8 192.9 76.6 238 56.5 278l-3.5 7h121.5c66.8 0 121.5.4 121.5.8 0 .8-154 452.4-159.6 467.9l-2.6 7.3H99.4c-18.9 0-34.4.2-34.4.5s3.4 6.3 7.7 13.3c23.2 38.6 47.3 69.1 80 101.3 23.5 23.2 36.2 34 60.3 51.4 73.6 53 156.5 84.3 249.5 94.2 22.2 2.3 76.6 2.3 99-.1 53.9-5.7 102.5-17.9 149.3-37.7 51.5-21.8 103.9-55.2 143.7-91.5 39.2-35.8 70.4-73.7 96.9-117.6L959 762l-2.4-3.7c-1.3-2.1-16.9-29.9-34.6-61.8-17.7-31.9-33.1-59.5-34.2-61.3l-2-3.2-31.4 41.6-31.4 41.6V761h-91V264h91l.2 156.3.3 156.3 67-85 67.1-85.1 27.7-.3 27.7-.2-.6-2.8c-10.7-47-25.6-88.2-46.1-127.2-25.6-48.9-55.3-89-95-128.1-18.3-18-22-21.4-36.3-33.1C756.8 51.2 663.1 12.6 562 2.5 547.3 1 500.4-.2 487.5.6zm56.2 286c37.6 5.5 75.3 29.8 96.9 62.6 16.1 24.3 23.5 49.2 23.5 78.3 0 33-10.4 62.6-31.4 89.3l-4.9 6.3 4 4.7c14.8 17.7 26.6 43.6 30.7 67.6 3.1 18.6 1.7 44.4-3.4 61.6-7.9 26.6-23.7 51.4-43.9 68.6-19.4 16.6-40 26.9-64.8 32.5-9.8 2.3-10.5 2.3-114.6 2.6l-104.8.4v-95l99.8-.3 99.7-.3 7-2.5c26.6-9.4 39-39.9 26.8-65.9-5.3-11.1-19.2-22.2-31.6-25.1-2.5-.6-31.8-1-72.4-1H392v-96h68.9c66.2 0 69.1-.1 75.4-2 13.3-4.1 24.9-14.9 29.7-27.8 2.8-7.2 3.7-20.9 2-28.3-3-12.7-12.5-25.2-23.7-31.2-10.6-5.7-11.6-5.7-116.9-5.7H331v-95h101c86.7 0 102.5.2 111.7 1.6z"/><path d="M13.6 394.7C-7.8 484.9-3.6 583.4 25.5 671.5c7 21.3 19 51.4 20 50.4.7-.8 119.5-339.3 119.5-340.6 0-1-14.9-1.3-73.9-1.3H17.2l-3.6 14.7zM983 505.6c-20.6 26-37.6 47.7-37.8 48.3-.4 1.3 56.7 102.1 57.9 102.1 1 0 10.6-40 13.3-56 4.8-28.1 7.6-59.8 7.6-86.7 0-16.4-1.7-48.7-2.8-52.6-.6-2.1-5.5 3.6-38.2 44.9z"/></svg>